<svg width="181" height="59" viewBox="0 0 181 59" fill="none" xmlns="http://www.w3.org/2000/svg">
<path d="M55.3382 43.6118L52.9042 39.7658C52.6702 39.409 52.4562 39.0394 52.2632 38.6588C52.2632 39.3078 52.3182 40.9588 52.3182 41.9858V43.6118H51.8262V38.1118H52.5082L54.9082 41.8898C55.1402 42.2658 55.3652 42.6548 55.5902 43.0378C55.5902 42.2658 55.5352 40.6468 55.5352 39.5808V38.1128H56.0532V43.6128L55.3382 43.6118Z" fill="#1A171B"/>
<path d="M61.4419 43.6118L60.9419 42.2118H58.4119L57.9009 43.6118H57.3569L59.4029 38.1118H60.0099L62.0559 43.6118H61.4419ZM59.9279 39.4578C59.8279 39.1848 59.7579 38.9458 59.6829 38.6658C59.6079 38.9258 59.5329 39.1778 59.4309 39.4378L58.5719 41.7878H60.7949L59.9279 39.4578Z" fill="#1A171B"/>
<path d="M66.0098 43.6118L63.9028 40.9888V43.5888H63.3848V38.1128H64.6118C65.6008 38.1128 66.3848 38.4608 66.3848 39.4788C66.3848 40.4968 65.5388 40.9888 64.4848 40.9888C64.6488 41.1668 64.8328 41.3778 64.9758 41.5558L66.6938 43.6048L66.0098 43.6118ZM64.4418 38.5018H63.8758V40.5508H64.4078C65.3008 40.5508 65.8078 40.0998 65.8078 39.4718C65.8128 38.7688 65.3148 38.5018 64.4418 38.5018Z" fill="#1A171B"/>
<path d="M70.1218 43.6741C68.4918 43.6741 67.7148 42.5671 67.7148 40.9411C67.6739 40.5821 67.7091 40.2185 67.8181 39.8741C67.9272 39.5296 68.1076 39.212 68.3476 38.942C68.5877 38.672 68.8819 38.4555 69.2112 38.3069C69.5405 38.1582 69.8975 38.0806 70.2588 38.0791C71.7658 38.0791 72.6728 39.0791 72.6728 40.8121C72.7035 41.1697 72.661 41.5298 72.5477 41.8704C72.4344 42.211 72.2528 42.5249 72.014 42.7928C71.7752 43.0608 71.4842 43.2771 71.1588 43.4287C70.8334 43.5802 70.4805 43.6637 70.1218 43.6741ZM70.1968 38.4891C69.9139 38.5044 69.6372 38.5781 69.3842 38.7055C69.1312 38.8329 68.9074 39.0114 68.7267 39.2296C68.5461 39.4478 68.4126 39.7011 68.3346 39.9734C68.2567 40.2458 68.2359 40.5313 68.2738 40.8121C68.2738 42.2941 68.9008 43.2301 70.1828 43.2301C70.4663 43.2142 70.7436 43.14 70.9972 43.012C71.2507 42.884 71.4751 42.7051 71.6563 42.4863C71.8375 42.2676 71.9715 42.0138 72.0501 41.7409C72.1286 41.4679 72.15 41.1817 72.1128 40.9001C72.1148 39.4041 71.3968 38.4891 70.1968 38.4891Z" fill="#1A171B"/>
<path d="M75.537 43.6328H74.248V38.1128H75.789C77.589 38.1128 78.6261 38.9868 78.6261 40.8458C78.6261 42.7048 77.33 43.6328 75.537 43.6328ZM75.721 38.5158H74.773V43.1228C75.049 43.1578 75.3269 43.1762 75.605 43.1778C75.9297 43.2225 76.2603 43.1935 76.5723 43.0931C76.8843 42.9927 77.1697 42.8234 77.4074 42.5977C77.6451 42.372 77.829 42.0958 77.9454 41.7894C78.0618 41.483 78.1079 41.1544 78.08 40.8278C78.08 39.2018 77.268 38.5118 75.693 38.5118L75.721 38.5158Z" fill="#1A171B"/>
<path d="M82.2468 43.6741C80.6238 43.6741 79.8398 42.5671 79.8398 40.9411C79.7995 40.5822 79.8352 40.2189 79.9445 39.8747C80.0538 39.5306 80.2342 39.2132 80.4741 38.9433C80.7141 38.6734 81.0081 38.457 81.337 38.3081C81.666 38.1592 82.0227 38.0812 82.3838 38.0791C83.8908 38.0791 84.7978 39.0791 84.7978 40.8121C84.8286 41.1697 84.786 41.5298 84.6727 41.8704C84.5595 42.211 84.3778 42.5249 84.139 42.7928C83.9002 43.0608 83.6092 43.2771 83.2838 43.4287C82.9584 43.5802 82.6056 43.6637 82.2468 43.6741ZM82.3218 38.4891C81.2988 38.4891 80.4058 39.3291 80.4058 40.8121C80.4058 42.2951 81.0268 43.2301 82.3148 43.2301C82.598 43.2139 82.8747 43.1394 83.1278 43.0111C83.3808 42.8829 83.6046 42.7038 83.7851 42.4851C83.9657 42.2663 84.0991 42.0126 84.177 41.7399C84.2549 41.4671 84.2756 41.1812 84.2378 40.9001C84.2378 39.4041 83.5218 38.4891 82.3218 38.4891Z" fill="#1A171B"/>
<path d="M91.3798 43.6118H90.6978L89.4798 39.4378C89.3908 39.1438 89.3298 38.8638 89.2688 38.6178C89.2185 38.8992 89.1517 39.1773 89.0688 39.4508L87.9688 43.6108H87.2868L85.7998 38.1108H86.3588L87.4088 42.0798C87.5088 42.4488 87.5788 42.7628 87.6478 43.0978C87.7053 42.7707 87.7804 42.4469 87.8728 42.1278L89.0118 38.1108H89.6938L90.8938 42.2108C90.9825 42.5098 91.0553 42.8132 91.1118 43.1198C91.1598 42.8398 91.2278 42.5938 91.2888 42.3338L92.3798 38.1338H92.8908L91.3798 43.6118Z" fill="#1A171B"/>
<path d="M97.4399 43.6118L96.9399 42.2118H94.4169L93.8989 43.6118H93.3599L95.4059 38.1118H95.9719L98.0179 43.6118H97.4399ZM95.9259 39.4578C95.8259 39.1848 95.7559 38.9458 95.6809 38.6658C95.6123 38.9279 95.5282 39.1857 95.4289 39.4378L94.5699 41.7878H96.7999L95.9259 39.4578Z" fill="#1A171B"/>
<path d="M102.085 43.6732C101.71 43.6787 101.336 43.6326 100.973 43.5362L101.007 43.0172C101.37 43.1412 101.749 43.2087 102.132 43.2172C102.868 43.2172 103.496 42.9172 103.496 42.1242C103.496 40.7582 100.896 41.2502 100.896 39.5422C100.896 38.6812 101.578 38.0532 102.758 38.0532C103.088 38.0547 103.417 38.0882 103.74 38.1532V38.6382C103.419 38.5407 103.086 38.4901 102.751 38.4882C101.912 38.4882 101.451 38.8882 101.451 39.4882C101.451 40.8542 104.063 40.3352 104.063 42.0572C104.038 43.0382 103.292 43.6732 102.085 43.6732Z" fill="#1A171B"/>
<path d="M106.694 38.5428V43.6118H106.176V38.5428H104.476V38.1128H108.424V38.5428H106.694Z" fill="#1A171B"/>
<path d="M111.979 43.6118L109.872 40.9888V43.5888H109.354V38.1128H110.575C111.575 38.1128 112.348 38.4608 112.348 39.4788C112.348 40.4968 111.509 40.9888 110.473 40.9888C110.637 41.1668 110.821 41.3778 110.973 41.5558L112.685 43.6048L111.979 43.6118ZM110.411 38.5018H109.852V40.5508H110.377C111.27 40.5508 111.777 40.0998 111.777 39.4718C111.782 38.7688 111.294 38.5018 110.411 38.5018Z" fill="#1A171B"/>
<path d="M117.141 43.6118L116.641 42.2118H114.111L113.6 43.6118H113.054L115.1 38.1118H115.659L117.705 43.6118H117.141ZM115.627 39.4578C115.527 39.1848 115.457 38.9458 115.382 38.6658C115.307 38.9258 115.225 39.1778 115.13 39.4378L114.266 41.7878H116.489L115.627 39.4578Z" fill="#1A171B"/>
<path d="M119.702 38.5428V43.6118H119.184V38.5428H117.484V38.1128H121.384V38.5428H119.702Z" fill="#1A171B"/>
<path d="M122.331 43.6118V38.1118H125.059V38.5358H122.877V40.5848H124.957V40.9848H122.877V43.1848H125.059V43.6148L122.331 43.6118Z" fill="#1A171B"/>
<path d="M130.439 38.7761C129.973 38.5871 129.476 38.4874 128.973 38.4821C128.662 38.4707 128.351 38.5258 128.063 38.6437C127.775 38.7616 127.515 38.9396 127.301 39.1658C127.086 39.392 126.923 39.6613 126.821 39.9557C126.719 40.2501 126.681 40.5628 126.709 40.8731C126.645 41.4324 126.805 41.9944 127.154 42.4356C127.504 42.8768 128.015 43.1611 128.574 43.2261C128.693 43.24 128.813 43.2437 128.932 43.2371C129.327 43.2372 129.721 43.1772 130.098 43.0591V40.8661H130.616V43.3731C130.048 43.5718 129.451 43.6732 128.85 43.6731C128.186 43.7224 127.53 43.5063 127.026 43.0723C126.521 42.6383 126.209 42.0217 126.159 41.3581C126.15 41.2352 126.15 41.1119 126.159 40.9891C126.11 40.2667 126.35 39.5544 126.826 39.0089C127.302 38.4634 127.976 38.1293 128.698 38.0801C128.813 38.0729 128.928 38.0729 129.043 38.0801C129.545 38.0774 130.044 38.1534 130.523 38.3051L130.439 38.7761Z" fill="#1A171B"/>
<path d="M132.205 43.6118V38.1118H132.73V43.6118H132.205Z" fill="#1A171B"/>
<path d="M137.804 43.6118L137.304 42.2118H134.774L134.263 43.6118H133.717L135.763 38.1118H136.322L138.368 43.6118H137.804ZM136.29 39.4578C136.19 39.1848 136.12 38.9458 136.045 38.6658C135.97 38.9258 135.888 39.1778 135.793 39.4378L134.934 41.7878H137.157L136.29 39.4578Z" fill="#1A171B"/>
<path d="M142.932 43.6727C142.561 43.6778 142.191 43.6317 141.832 43.5357V43.0167C142.195 43.1407 142.574 43.2082 142.957 43.2167C143.693 43.2167 144.321 42.9167 144.321 42.1237C144.321 40.7577 141.721 41.2497 141.721 39.5417C141.721 38.6807 142.403 38.0527 143.583 38.0527C143.913 38.0539 144.242 38.0874 144.565 38.1527V38.6377C144.245 38.5402 143.911 38.4897 143.576 38.4877C142.737 38.4877 142.276 38.8877 142.276 39.4877C142.276 40.8537 144.888 40.3347 144.888 42.0567C144.889 43.0377 144.139 43.6727 142.932 43.6727Z" fill="#1A171B"/>
<path d="M147.296 41.4128C147.129 41.4229 146.962 41.4229 146.796 41.4128V43.6398H146.273V38.1128H147.521C148.735 38.1128 149.396 38.7548 149.396 39.6568C149.347 40.1669 149.1 40.6374 148.707 40.9661C148.314 41.2949 147.807 41.4554 147.296 41.4128ZM147.426 38.5228H146.792V40.9228C146.973 40.9481 147.155 40.9618 147.338 40.9638C148.279 40.9638 148.852 40.4518 148.852 39.6998C148.852 38.9478 148.352 38.5178 147.393 38.5178L147.426 38.5228Z" fill="#1A171B"/>
<path d="M152.478 43.6742C150.855 43.6742 150.071 42.5672 150.071 40.9412C150.031 40.5824 150.067 40.2191 150.176 39.8749C150.285 39.5307 150.466 39.2134 150.706 38.9435C150.946 38.6736 151.24 38.4571 151.568 38.3083C151.897 38.1594 152.254 38.0813 152.615 38.0792C154.122 38.0792 155.029 39.0792 155.029 40.8122C155.06 41.1698 155.017 41.53 154.904 41.8706C154.791 42.2111 154.609 42.525 154.37 42.793C154.132 43.0609 153.841 43.2773 153.515 43.4288C153.19 43.5803 152.837 43.6639 152.478 43.6742ZM152.553 38.4892C151.53 38.4892 150.637 39.3292 150.637 40.8122C150.637 42.2952 151.258 43.2302 152.546 43.2302C152.829 43.214 153.106 43.1395 153.359 43.0113C153.612 42.8831 153.836 42.704 154.017 42.4852C154.197 42.2665 154.331 42.0127 154.408 41.74C154.486 41.4673 154.507 41.1814 154.469 40.9002C154.469 39.4042 153.753 38.4892 152.553 38.4892ZM152.233 37.6352L151.981 37.3482L152.949 36.4482L153.269 36.8032L152.233 37.6352Z" fill="#1A171B"/>
<path d="M155.943 43.6602C155.755 43.6574 155.567 43.6346 155.384 43.5922V43.1142C155.577 43.178 155.78 43.2117 155.984 43.2142C156.455 43.2142 156.714 43.0232 156.714 42.1962V38.0962H157.239V42.2362C157.239 43.1682 156.843 43.6602 155.943 43.6602Z" fill="#1A171B"/>
<path d="M162.557 43.6118L160.123 39.7658C159.889 39.409 159.675 39.0394 159.482 38.6588C159.482 39.3078 159.543 40.9588 159.543 41.9858V43.6118H159.018V38.1118H159.7L162.1 41.8898C162.332 42.2658 162.564 42.6548 162.782 43.0378C162.782 42.2658 162.721 40.6468 162.721 39.5808V38.1128H163.239V43.6128L162.557 43.6118Z" fill="#1A171B"/>
<path d="M166.922 43.6741C165.299 43.6741 164.515 42.5671 164.515 40.9411C164.474 40.5821 164.509 40.2185 164.618 39.8741C164.727 39.5296 164.908 39.212 165.148 38.942C165.388 38.672 165.682 38.4555 166.012 38.3069C166.341 38.1582 166.698 38.0806 167.059 38.0791C168.566 38.0791 169.473 39.0791 169.473 40.8121C169.504 41.1697 169.461 41.5298 169.348 41.8704C169.235 42.211 169.053 42.5249 168.814 42.7928C168.575 43.0608 168.284 43.2771 167.959 43.4287C167.634 43.5802 167.281 43.6637 166.922 43.6741ZM166.997 38.4891C166.714 38.5044 166.438 38.5781 166.185 38.7055C165.932 38.8329 165.708 39.0114 165.527 39.2296C165.346 39.4478 165.213 39.7011 165.135 39.9734C165.057 40.2458 165.036 40.5313 165.074 40.8121C165.074 42.2941 165.701 43.2301 166.983 43.2301C167.267 43.2142 167.544 43.14 167.797 43.012C168.051 42.884 168.275 42.7051 168.457 42.4863C168.638 42.2676 168.772 42.0138 168.85 41.7409C168.929 41.4679 168.95 41.1817 168.913 40.9001C168.913 39.4041 168.197 38.4891 166.997 38.4891Z" fill="#1A171B"/>
<path d="M171.443 43.6742C171.072 43.6793 170.702 43.6332 170.343 43.5372V43.0182C170.705 43.1422 171.085 43.2097 171.468 43.2182C172.204 43.2182 172.832 42.9182 172.832 42.1252C172.832 40.7592 170.232 41.2512 170.232 39.5432C170.232 38.6822 170.914 38.0542 172.094 38.0542C172.424 38.0557 172.753 38.0892 173.076 38.1542V38.6392C172.755 38.5417 172.422 38.4912 172.087 38.4892C171.248 38.4892 170.787 38.8892 170.787 39.4892C170.787 40.8552 173.399 40.3362 173.399 42.0582C173.399 43.0382 172.65 43.6742 171.443 43.6742ZM171.532 37.6352L171.28 37.3482L172.248 36.4482L172.562 36.8032L171.532 37.6352Z" fill="#1A171B"/>
<path d="M176.755 43.6739C175.112 43.6739 174.3 42.6559 174.3 40.9819C174.3 39.3079 175.064 38.0649 176.939 38.0649C177.378 38.0667 177.814 38.1242 178.239 38.2359L178.178 38.7279C177.739 38.5769 177.278 38.5009 176.814 38.5029C175.402 38.5029 174.843 39.6029 174.843 40.8939C174.843 42.3629 175.491 43.2169 176.889 43.2169C177.361 43.2122 177.826 43.105 178.253 42.9029L178.308 43.3679C177.816 43.5743 177.288 43.6784 176.755 43.6739Z" fill="#1A171B"/>
<path d="M179.687 43.6118V38.1118H180.205V43.6118H179.687Z" fill="#1A171B"/>
<path d="M57.3702 33.181L53.3882 27.809V33.185H51.6152V22.189H53.3882V27.289L57.3882 22.189H59.5632L55.2332 27.497L59.7542 33.181H57.3702Z" fill="#1A171B"/>
<path d="M68.1309 33.1808L67.2849 30.7418H62.8459L61.9999 33.1668H60.2139L64.1489 22.1748H66.1489L70.1309 33.1668L68.1309 33.1808ZM65.5599 25.8808C65.3575 25.3287 65.1957 24.7625 65.0759 24.1868H65.0419C64.9159 24.7872 64.7489 25.3783 64.5419 25.9558L63.3029 29.3748H66.8289L65.5599 25.8808Z" fill="#1A171B"/>
<path d="M74.2881 29.1561C74.018 29.1725 73.7472 29.1725 73.4771 29.1561V33.2141H71.7041V22.1881C72.5501 22.1881 73.4971 22.1201 74.5201 22.1201C77.1201 22.1201 78.5501 23.3911 78.5501 25.4261C78.5501 27.4611 76.8461 29.1561 74.2881 29.1561ZM74.3881 23.5681C74.0837 23.5503 73.7785 23.5503 73.4741 23.5681V27.5921C73.7338 27.6302 73.9957 27.6505 74.2581 27.6531C74.5619 27.6947 74.8711 27.6712 75.1651 27.5841C75.4592 27.497 75.7313 27.3484 75.9635 27.1481C76.1957 26.9478 76.3826 26.7003 76.5118 26.4222C76.6411 26.1442 76.7097 25.8417 76.7131 25.5351C76.7161 24.2401 75.9801 23.5681 74.3911 23.5681H74.3881Z" fill="#1A171B"/>
<path d="M80.5151 33.181V22.189H82.2881V33.181H80.5151Z" fill="#1A171B"/>
<path d="M88.8069 23.6851V33.1851H87.0339V23.6851H84.0269V22.1851H91.8269V23.6851H88.8069Z" fill="#1A171B"/>
<path d="M99.148 33.1808L98.302 30.7418H93.863L93.017 33.1668H91.228L95.156 22.1748H97.127L101.109 33.1668L99.148 33.1808ZM96.577 25.8808C96.3723 25.3288 96.2082 24.7627 96.086 24.1868C95.9591 24.7782 95.7921 25.3602 95.586 25.9288L94.348 29.3478H97.86L96.577 25.8808Z" fill="#1A171B"/>
<path d="M101.968 27.203L102.718 26.615V22.189H104.491V25.12L106.538 23.409V25.124L104.491 26.809V31.591H108.262V33.142H102.718V28.309L101.968 28.897V27.203Z" fill="#1A171B"/>
<path d="M113.691 33.181V22.189H115.464V31.63H119.235V33.181H113.691Z" fill="#1A171B"/>
<path d="M124.84 33.345C121.43 33.345 120.66 31.453 120.66 29.431V22.189H122.433V29.301C122.433 30.77 122.924 31.876 124.956 31.876C126.743 31.876 127.556 31.125 127.556 29.076V22.189H129.295V28.945C129.293 31.876 127.72 33.345 124.84 33.345Z" fill="#1A171B"/>
<path d="M135.226 33.2418C134.108 33.2418 133.18 33.1938 132.314 33.1808V22.2018C133.18 22.2018 134.448 22.1338 135.724 22.1338C139.181 22.1338 141.316 23.7188 141.316 27.5238C141.316 31.3288 138.799 33.2418 135.226 33.2418ZM135.587 23.6028C135.086 23.5924 134.586 23.6084 134.087 23.6508V31.6508C134.524 31.7041 134.963 31.7314 135.403 31.7328C137.762 31.7328 139.42 30.4758 139.42 27.6328C139.42 25.0508 138.267 23.6028 135.584 23.6028H135.587Z" fill="#1A171B"/>
<path d="M142.522 33.181V31.815L146.845 24.922C147.104 24.498 147.37 24.13 147.663 23.733H142.705V22.189H149.777V23.589L145.222 30.701C145.031 30.995 144.867 31.275 144.656 31.582H149.845V33.215L142.522 33.181Z" fill="#1A171B"/>
<path d="M157.804 33.181L153.822 27.809V33.185H152.069V22.189H153.842V27.289L157.842 22.189H160.024L155.666 27.497L160.187 33.181H157.804Z" fill="#1A171B"/>
<path d="M161.882 33.181V22.189H163.662V33.181H161.882Z" fill="#1A171B"/>
<path fill-rule="evenodd" clip-rule="evenodd" d="M35.2892 58.088L7.34424 53.17V9.359L35.2892 0V58.088Z" fill="url(#paint0_linear_722_1034)"/>
<path fill-rule="evenodd" clip-rule="evenodd" d="M35.289 22.2228C34.4885 22.7856 33.602 23.2149 32.664 23.4938C30.414 23.9448 28.013 21.2598 28.013 21.2598C28.013 21.2598 28.579 25.1808 27.167 27.5998C25.674 30.1398 20.894 33.3308 20.894 33.3308C20.894 33.3308 26.179 32.2578 27.209 33.9728C28.3 35.7898 28.45 42.1728 28.45 42.1728C28.45 42.1728 31.178 34.5288 33.585 33.4828C34.1388 33.2532 34.7066 33.0591 35.285 32.9018L35.289 22.2228Z" fill="url(#paint1_linear_722_1034)"/>
<path fill-rule="evenodd" clip-rule="evenodd" d="M35.289 22.2228C34.4885 22.7856 33.602 23.2149 32.664 23.4938C30.414 23.9448 28.013 21.2598 28.013 21.2598C28.013 21.2598 28.579 25.1808 27.167 27.5998C25.674 30.1398 20.894 33.3308 20.894 33.3308C20.894 33.3308 26.179 32.2578 27.209 33.9728C28.3 35.7898 28.45 42.1728 28.45 42.1728C28.45 42.1728 31.178 34.5288 33.585 33.4828C34.1388 33.2532 34.7066 33.0591 35.285 32.9018L35.289 22.2228Z" fill="url(#paint2_linear_722_1034)"/>
<path fill-rule="evenodd" clip-rule="evenodd" d="M0 45.1628C0 45.1628 4.93 39.7728 6.137 36.8898C7.3 34.1528 4.16 29.5738 4.16 29.5738C4.16 29.5738 9.06 32.2308 11.354 30.8038C13.648 29.3768 17.048 25.1128 17.048 25.1128C17.048 25.1128 15.227 29.7378 15.902 31.4248C16.625 33.2248 20.894 33.3248 20.894 33.3248C18.4343 34.8697 16.0706 36.5624 13.816 38.3938C11.5 40.4428 9.908 48.0458 9.908 48.0458C9.908 48.0458 8.735 43.0388 7.263 42.1228C5.791 41.2068 0 45.1628 0 45.1628Z" fill="url(#paint3_linear_722_1034)"/>
<path fill-rule="evenodd" clip-rule="evenodd" d="M11.354 30.803C9.063 32.231 4.16 29.573 4.16 29.573C4.16 29.573 7.3 34.157 6.137 36.89C4.91 39.8 0 45.19 0 45.19C0 45.19 1.091 44.466 2.441 43.708C4.14992 41.8067 5.62014 39.7038 6.819 37.446C7.965 34.713 4.828 30.157 4.828 30.157C4.828 30.157 9.728 32.787 12.015 31.357C13.6023 30.193 15.0413 28.8393 16.3 27.326C16.641 26.103 17.023 25.126 17.023 25.126C17.023 25.126 13.639 29.375 11.354 30.803ZM16.9 32.436C17.835 33.2245 19 33.6893 20.221 33.761L20.378 33.661L20.896 33.333C19.5182 33.2975 18.1607 32.9927 16.9 32.436ZM7.931 42.683C7.89109 42.6663 7.84997 42.6525 7.808 42.642C7.94377 42.8221 8.06674 43.0116 8.176 43.209L8.285 43.409L8.385 43.6V43.641C8.4224 43.7055 8.45579 43.7723 8.485 43.841V43.875C8.519 43.95 8.553 44.025 8.585 44.1L8.685 44.332L8.733 44.455C8.75175 44.49 8.7678 44.5265 8.781 44.564L8.842 44.714C8.83927 44.7412 8.83927 44.7687 8.842 44.796L8.903 44.967V45.022C8.9165 45.0885 8.9394 45.1529 8.971 45.213C9.28124 46.0889 9.54527 46.9804 9.762 47.884V47.925C9.76619 47.8619 9.78002 47.7999 9.803 47.741V47.666C9.8379 47.4178 9.89479 47.1731 9.973 46.935C9.68 45.473 8.873 43.235 7.934 42.679L7.931 42.683Z" fill="url(#paint4_linear_722_1034)"/>
<path fill-rule="evenodd" clip-rule="evenodd" d="M32.4178 50.6282C32.6018 50.2282 34.6478 49.9452 34.6478 49.9452C33.3348 49.9059 32.0254 49.7873 30.7268 49.5902C29.9383 49.4054 29.2062 49.0329 28.5928 48.5042C28.4401 48.752 28.2292 48.9587 27.9784 49.1063C27.7276 49.254 27.4445 49.338 27.1538 49.3512C25.7402 49.4281 24.3232 49.4121 22.9118 49.3032C22.9118 49.3032 25.8918 49.9112 26.1778 50.3282C26.4638 50.7452 25.5508 51.7562 25.5508 51.7562C26.877 51.3552 28.2573 51.1616 29.6428 51.1822C31.0958 51.3822 34.0958 52.0702 34.0958 52.0702C34.0958 52.0702 32.2268 51.0622 32.4178 50.6282ZM20.5458 48.2982C20.4458 47.9432 22.1348 47.4982 22.1348 47.4982C20.8287 47.5679 19.5198 47.5679 18.2138 47.4982C17.218 47.3856 16.2422 47.1373 15.3138 46.7602C15.3138 46.7602 15.5248 47.4432 14.4888 47.6552C12.9697 47.8677 11.4393 47.9886 9.90576 48.0172C11.3705 48.0931 12.8261 48.2938 14.2568 48.6172C14.8778 48.9522 14.7408 49.9172 14.7408 49.9172C15.8756 49.4064 17.0929 49.1032 18.3348 49.0222C19.8488 49.0222 22.9108 49.2952 22.9108 49.2952C22.9108 49.2952 20.6418 48.6812 20.5458 48.2992V48.2982ZM28.5928 48.5302C28.5928 48.5302 28.1768 47.7922 29.0838 47.7172C29.9908 47.6422 32.0498 47.6422 32.0498 47.6422C31.0495 47.5136 30.0587 47.3195 29.0838 47.0612C28.4018 46.8012 28.6128 46.3782 28.6128 46.3782C27.8744 46.5331 27.1231 46.6178 26.3688 46.6312C25.2996 46.5609 24.2359 46.424 23.1838 46.2212C23.1838 46.2212 24.5958 46.7132 24.4458 46.9662C23.7122 47.2467 22.9438 47.426 22.1618 47.4992C23.4804 47.4815 24.799 47.5453 26.1098 47.6902C26.9561 47.8993 27.7857 48.1711 28.5918 48.5032L28.5928 48.5302Z" fill="url(#paint5_linear_722_1034)"/>
<path fill-rule="evenodd" clip-rule="evenodd" d="M17.045 25.1121C17.045 25.1121 19.775 20.7201 19.585 19.1471C19.395 17.5741 16.625 17.0981 16.625 17.0981C16.625 17.0981 20.287 16.1691 21.883 14.6801C23.0797 13.3696 24.0539 11.8722 24.767 10.2471C24.767 10.2471 25.108 12.7201 26.479 13.0821C27.85 13.4441 31.679 11.8661 31.679 11.8661C30.2051 13.2954 28.8139 14.8075 27.512 16.3951C26.291 18.0691 28.012 21.2391 28.012 21.2391C28.012 21.2391 24.841 20.1191 23.068 20.4941C21.295 20.8691 17.045 25.1121 17.045 25.1121Z" fill="url(#paint6_linear_722_1034)"/>
<path fill-rule="evenodd" clip-rule="evenodd" d="M26.4789 13.0891C26.4129 13.0737 26.3488 13.0509 26.2879 13.0211C26.493 13.3235 26.7926 13.5493 27.1399 13.6631C28.2678 13.7406 29.3987 13.5608 30.4469 13.1371C31.1289 12.4201 31.6809 11.8871 31.6809 11.8871C31.6809 11.8871 27.8909 13.4651 26.4789 13.0891ZM19.2549 18.4471C19.4213 18.6409 19.5301 18.8775 19.5689 19.1301C19.7389 20.7011 17.0319 25.0941 17.0319 25.0941C17.0319 25.0941 17.9249 24.2061 19.0779 23.2021C19.7237 22.1303 20.1243 20.9289 20.2509 19.6841C20.1889 19.4161 20.0671 19.1657 19.8946 18.9515C19.7221 18.7373 19.5034 18.5648 19.2549 18.4471ZM21.8669 14.7171C20.2669 16.2061 16.6089 17.1351 16.6089 17.1351C17.0379 17.2272 17.4579 17.3574 17.8639 17.5241C19.5527 17.0837 21.1393 16.3181 22.5349 15.2701C23.5771 14.1566 24.4418 12.8894 25.0989 11.5131C24.9446 11.1038 24.8337 10.6795 24.7679 10.2471C24.0392 11.8749 23.0589 13.378 21.8629 14.7011L21.8669 14.7171Z" fill="url(#paint7_linear_722_1034)"/>
<path fill-rule="evenodd" clip-rule="evenodd" d="M28.6882 21.9088C28.2792 21.5468 28.0062 21.2598 28.0062 21.2598C28.0062 21.2598 28.5722 25.1808 27.1602 27.5998C25.6672 30.1398 20.8872 33.3308 20.8872 33.3308C20.8872 33.3308 21.6782 33.1738 22.7012 33.0708C24.2082 31.9638 26.7932 29.9078 27.8222 28.1518C29.1522 25.8918 28.7502 22.3668 28.6882 21.9088ZM32.6642 23.4938C32.0256 23.544 31.3834 23.462 30.7779 23.2527C30.1724 23.0435 29.6166 22.7116 29.1452 22.2778C29.9452 23.0228 31.6752 24.3778 33.3252 24.0468C34.0259 23.8389 34.6889 23.5206 35.2892 23.1038V22.2228C34.4887 22.7856 33.6022 23.2149 32.6642 23.4938ZM27.2082 33.9598C28.2992 35.7768 28.4492 42.1598 28.4492 42.1598C28.4492 42.1598 28.6602 41.5598 29.0082 40.6838C28.8782 38.6348 28.5652 35.6768 27.8692 34.5358C27.7056 34.2848 27.4739 34.0857 27.2012 33.9618L27.2082 33.9598Z" fill="url(#paint8_linear_722_1034)"/>
<path d="M30.687 23.425C32.126 25.297 33.817 30.257 34.608 33.105C34.833 33.03 35.072 32.962 35.29 32.893V23.104C34.6897 23.5208 34.0267 23.8392 33.326 24.047C32.4002 24.163 31.4636 23.9422 30.687 23.425Z" fill="url(#paint9_linear_722_1034)"/>
<path d="M33.233 23.3231C33.062 23.3948 32.8836 23.4475 32.701 23.4801H32.667C32.2753 23.5588 31.8718 23.5588 31.48 23.4801H31.364C31.0426 23.4033 30.7314 23.2885 30.437 23.1381H30.373C30.4836 23.2516 30.5861 23.3726 30.68 23.5001C31.4624 24.0221 32.4073 24.2431 33.34 24.1221C34.0407 23.9143 34.7037 23.596 35.304 23.1791V22.2231C34.651 22.656 33.9574 23.0244 33.233 23.3231Z" fill="#8B0E13"/>
<defs>
<linearGradient id="paint0_linear_722_1034" x1="18.662" y1="20.7374" x2="42.383" y2="32.528" gradientUnits="userSpaceOnUse">
<stop stop-color="#0076BD"/>
<stop offset="1" stop-color="#003D85"/>
</linearGradient>
<linearGradient id="paint1_linear_722_1034" x1="27.9188" y1="26.5298" x2="32.3141" y2="32.2276" gradientUnits="userSpaceOnUse">
<stop stop-color="#AF0917"/>
<stop offset="0.25" stop-color="#E2001A"/>
<stop offset="1" stop-color="#E2001A"/>
</linearGradient>
<linearGradient id="paint2_linear_722_1034" x1="27.8756" y1="26.2161" x2="31.4799" y2="32.5826" gradientUnits="userSpaceOnUse">
<stop stop-color="#AF0917"/>
<stop offset="0.65" stop-color="#E2001A"/>
<stop offset="1" stop-color="#E2001A"/>
</linearGradient>
<linearGradient id="paint3_linear_722_1034" x1="15.4198" y1="27.1997" x2="-3.67976" y2="16.066" gradientUnits="userSpaceOnUse">
<stop stop-color="#FFE500"/>
<stop offset="1" stop-color="#EE7F00"/>
</linearGradient>
<linearGradient id="paint4_linear_722_1034" x1="6.93747" y1="21.3413" x2="33.0249" y2="39.7728" gradientUnits="userSpaceOnUse">
<stop stop-color="#FFE500"/>
<stop offset="1" stop-color="#EE7F00"/>
</linearGradient>
<linearGradient id="paint5_linear_722_1034" x1="36.5282" y1="10.9634" x2="12.6521" y2="10.9634" gradientUnits="userSpaceOnUse">
<stop stop-color="#0076BD"/>
<stop offset="1" stop-color="#004494"/>
</linearGradient>
<linearGradient id="paint6_linear_722_1034" x1="-10.7281" y1="-20.6127" x2="-19.2293" y2="-29.2972" gradientUnits="userSpaceOnUse">
<stop stop-color="white"/>
<stop offset="1" stop-color="#C6C7C8"/>
</linearGradient>
<linearGradient id="paint7_linear_722_1034" x1="19.4876" y1="41.4703" x2="34.1827" y2="52.0869" gradientUnits="userSpaceOnUse">
<stop stop-color="white"/>
<stop offset="1" stop-color="#C6C7C8"/>
</linearGradient>
<linearGradient id="paint8_linear_722_1034" x1="30.8822" y1="31.5844" x2="23.345" y2="27.2982" gradientUnits="userSpaceOnUse">
<stop stop-color="#AF0917"/>
<stop offset="0.35" stop-color="#E2001A"/>
<stop offset="1" stop-color="#E2001A"/>
</linearGradient>
<linearGradient id="paint9_linear_722_1034" x1="34.0656" y1="33.8851" x2="25.6383" y2="38.7973" gradientUnits="userSpaceOnUse">
<stop stop-color="#9D0D16"/>
<stop offset="0.35" stop-color="#E2001A"/>
<stop offset="1" stop-color="#E2001A"/>
</linearGradient>
</defs>
</svg>
